#!OML:ASF H:\ManfredETheater\Project 1\Capture day 1\Session 1\subject.ASF
:FULLY-SPECIFIED
:DEGREES
81
root -3.50934 14.8242 -27.3577 -2.37234 26.2867 -7.35746
lowerback 27.4745 -3.8902 3.5454
upperback 4.03968 -3.64175 2.00009
thorax -10.7765 -1.7386 1.52059
lowerneck -14.9484 -4.65629 -4.56202
upperneck 8.72967 -5.76754 3.59532
head 5.29514 -2.72298 1.34513
rclavicle 9.93923e-016 -2.78299e-015
rhumerus -57.6949 -2.50377 -80.5816
rradius 58.0735
rwrist -3.38658
rhand -22.8532 -11.6044
rfingers 7.12502
rthumb 3.58489 -41.554
lclavicle 9.93923e-016 -2.78299e-015
lhumerus -35.9881 -8.95985 97.1286
lradius 79.2101
lwrist -2.94055
lhand -28.4006 -13.4951
lfingers 7.12502
lthumb -1.77283 16.4773
rfemur -55.5453 -8.23791 20.6631
rtibia 68.3011
rfoot -4.83315 -7.8035
rtoes -28.8765
lfemur -29.7767 -1.21982 -4.68338
ltibia 103.93
lfoot -23.5965 -8.83264
ltoes -9.86107
82
root -3.57769 14.7749 -27.1048 -2.98189 26.8437 -8.11401
lowerback 28.0137 -3.72962 3.59627
upperback 4.15777 -3.38643 1.98331
thorax -10.9196 -1.61723 1.40491
lowerneck -14.7168 -4.95398 -4.88209
upperneck 8.7072 -6.18711 4.17941
head 5.2973 -2.90057 1.54351
rclavicle 1.20861e-013 -7.83212e-014
rhumerus -55.153 -2.15047 -81.1229
rradius 56.7321
rwrist -2.52308
rhand -21.5212 -12.2186
rfingers 7.12502
rthumb 4.87107 -42.1426
lclavicle 1.20861e-013 -7.83212e-014
lhumerus -35.1856 -8.49723 96.5155
lradius 78.9576
lwrist -2.57054
lhand -28.5329 -12.6674
lfingers 7.12502
lthumb -1.90056 17.3038
rfemur -55.341 -8.78563 22.025
rtibia 70.0049
rfoot -6.49313 -8.42053
rtoes -28.5307
lfemur -33.0319 0.13271 -4.74568
ltibia 105.168
lfoot -23.9948 -9.00958
ltoes -11.0276
83
root -3.64093 14.7332 -26.8601 -3.67425 27.3795 -8.96418
lowerback 28.618 -3.60717 3.80124
upperback 4.27565 -3.12825 1.96962
thorax -11.1015 -1.50042 1.20373
lowerneck -14.5033 -5.24714 -5.19069
upperneck 8.66478 -6.59493 4.70178
head 5.29694 -3.07693 1.7215
rclavicle 5.22804e-014 -3.37934e-014
rhumerus -52.751 -1.88562 -81.5199
rradius 55.7154
rwrist -1.22602
rhand -20.2329 -12.5244
rfingers 7.12502
rthumb 6.11499 -42.4161
lclavicle 5.22804e-014 -3.37934e-014
lhumerus -34.4492 -8.18522 95.9195
lradius 78.8024
lwrist -2.45651
lhand -28.4912 -12.0231
lfingers 7.12502
lthumb -1.86027 17.9486
rfemur -54.9928 -9.36406 23.4536
rtibia 71.5011
rfoot -8.05648 -9.04539
rtoes -28.2542
lfemur -36.2114 1.338 -4.96327
ltibia 106.039
lfoot -24.349 -9.1635
ltoes -12.0665
84
root -3.70034 14.6955 -26.6225 -4.23148 27.8359 -9.82621
lowerback 29.0651 -3.46842 4.06255
upperback 4.36768 -2.84029 1.95597
thorax -11.2315 -1.37418 0.948121
lowerneck -14.3289 -5.53767 -5.48837
upperneck 8.60537 -6.99309 5.16998
head 5.29817 -3.25206 1.88082
rclavicle -1.19271e-015 2.38542e-014
rhumerus -50.5506 -1.69849 -81.7931
rradius 55.1146
rwrist 0.341041
rhand -19.2138 -12.5645
rfingers 7.12502
rthumb 7.09877 -42.4255
lclavicle -1.19271e-015 2.38542e-014
lhumerus -33.799 -8.03794 95.3592
lradius 78.7945
lwrist -2.54503
lhand -28.3223 -11.5431
lfingers 7.12502
lthumb -1.69718 18.4299
rfemur -54.7521 -9.9243 24.9177
rtibia 72.8176
rfoot -9.51269 -9.61704
rtoes -27.9704
lfemur -39.5065 2.47761 -5.37887
ltibia 106.571
lfoot -24.605 -9.30056
ltoes -12.8599
85
root -3.75648 14.6646 -26.3908 -4.7787 28.2516 -10.6661
lowerback 29.5288 -3.3182 4.32538
upperback 4.4629 -2.534 1.94238
thorax -11.3615 -1.24023 0.681706
lowerneck -14.2025 -5.83067 -5.77973
upperneck 8.53088 -7.38866 5.59925
head 5.30371 -3.42817 2.02592
rclavicle 3.97569e-015 -7.95139e-015
rhumerus -48.5999 -1.52799 -81.9735
rradius 54.9927
rwrist 1.94147
rhand -18.6772 -12.3922
rfingers 7.12502
rthumb 7.61669 -42.235
lclavicle 3.97569e-015 -7.95139e-015
lhumerus -33.2385 -8.06522 94.8482
lradius 78.9465
lwrist -2.76064
lhand -28.0942 -11.2411
lfingers 7.12502
lthumb -1.4769 18.7335
rfemur -54.4384 -10.5171 26.359
rtibia 73.9587
rfoot -10.8819 -10.1327
rtoes -27.7061
lfemur -42.7145 3.44119 -5.99557
ltibia 106.722
lfoot -24.7735 -9.38854
ltoes -13.52
86
root -3.80974 14.6401 -26.1635 -5.277 28.6412 -11.4646
lowerback 29.9725 -3.14854 4.55509
upperback 4.56062 -2.21202 1.93469
thorax -11.4719 -1.09837 0.430246
lowerneck -14.1211 -6.12764 -6.0707
upperneck 8.4323 -7.78439 6.01016
head 5.31126 -3.60529 2.16391
rclavicle 1.55052e-014 -1.11319e-014
rhumerus -46.9214 -1.28829 -82.0881
rradius 55.3835
rwrist 3.32848
rhand -18.7139 -12.1757
rfingers 7.12502
rthumb 7.58128 -42.0198
lclavicle 1.55052e-014 -1.11319e-014
lhumerus -32.7515 -8.26151 94.3911
lradius 79.2392
lwrist -3.03072
lhand -27.8583 -11.088
lfingers 7.12502
lthumb -1.24906 18.8881
rfemur -54.0942 -11.1553 27.762
rtibia 74.9461
rfoot -12.1501 -10.593
rtoes -27.5081
lfemur -45.8417 4.21218 -6.78039
ltibia 106.503
lfoot -24.8019 -9.44575
ltoes -13.782
